<svg id="Layer_1" data-name="Layer 1" xmlns="http://www.w3.org/2000/svg" xmlns:xlink="http://www.w3.org/1999/xlink" viewBox="0 0 1920 1920"><defs><style>.cls-1{fill:#0c0c0c;}.cls-2{fill:url(#linear-gradient);}.cls-3{fill:url(#linear-gradient-2);}.cls-4{fill:url(#linear-gradient-3);}</style><linearGradient id="linear-gradient" x1="780.03" y1="1371.94" x2="1205.75" y2="1371.94" gradientUnits="userSpaceOnUse"><stop offset="0" stop-color="#ffc000"/><stop offset="1" stop-color="#fcee5b"/></linearGradient><linearGradient id="linear-gradient-2" x1="742.51" y1="542.91" x2="1141.58" y2="551.11" xlink:href="#linear-gradient"/><linearGradient id="linear-gradient-3" x1="418.23" y1="960" x2="972.22" y2="960" xlink:href="#linear-gradient"/></defs><circle class="cls-1" cx="1408.64" cy="1371.94" r="93.13"/><path class="cls-2" d="M1205.75,1465.07H972.22a146,146,0,0,1-126.32-72.63L780,1278.82h238.7a186.64,186.64,0,0,1,187,186.25Z"/><path class="cls-3" d="M780,641.18h233.54a146,146,0,0,0,126.31-72.63l65.87-113.62H967.05A186.66,186.66,0,0,0,780,641.18Z"/><path class="cls-4" d="M972.22,1465.07H772.67a146,146,0,0,1-126.31-72.63l-208.6-359.85a144.74,144.74,0,0,1,0-145.22l208.6-359.85a146,146,0,0,1,126.31-72.59H972.22A146,146,0,0,0,845.9,527.52L777.42,645.66,637.3,887.37a144.79,144.79,0,0,0,0,145.22L780,1278.82l65.87,113.62A146,146,0,0,0,972.22,1465.07Z"/></svg>